<svg xmlns="http://www.w3.org/2000/svg" id="b" data-name="Ebene 2" width="1133.91mm" height="559.08mm" viewBox="0 0 3214.22 1584.81"><g id="c" data-name="Ebene 1"><g><g><path d="m1066.66,1446.28c.45-.66.86-1.35,1.36-1.96,66.85-83.06,133.7-166.12,200.55-249.18q2.26-2.81.08-5.66c-58.8-76.37-117.59-152.74-176.38-229.11-.57-.74-1.01-1.57-1.52-2.36.91-.11,1.82-.3,2.73-.3,50.24-.01,100.47,0,150.71-.06,2.23,0,3.59.63,4.94,2.43,33.44,44.71,66.94,89.36,100.44,134.03.14.19.29.39.43.58,1.61,2.13,1.62,2.14,3.26,0,26.41-34.48,52.82-68.95,79.24-103.43,8.07-10.54,16.18-21.06,24.19-31.64,1.08-1.43,2.18-1.96,3.98-1.96,52.8.05,105.59.04,158.39.05.78,0,1.56.12,2.34.18-.43.72-.78,1.5-1.31,2.14-38.64,46.73-77.29,93.44-115.94,140.15-24.07,29.09-48.14,58.17-72.2,87.27-1.94,2.35-2.06,1.78-.12,4.34,63.81,84.31,127.62,168.63,191.43,252.93.18.24.45.41.67.61-.16.32-.26.86-.49.92-.52.14-1.11.04-1.67.04h-157.2c-.54-.94-.98-1.95-1.64-2.81-34-44.07-68.01-88.13-102.02-132.19-4.84-6.27-9.68-12.53-14.52-18.8q-1.5-1.94-2.97-.12c-.1.12-.2.25-.3.37-13.25,16.54-26.5,33.08-39.75,49.62-27.05,33.77-54.1,67.54-81.13,101.32-.62.77-1.01,1.73-1.5,2.59h-154.08Z" style="fill: #565555; stroke-width: 0px;"></path><path d="m893.38,957.63c1.04.01,2.08.04,3.12.04,43.59,0,87.18,0,130.76,0,.48,0,.96,0,1.44,0,1.95.04,1.96.05,2.01,2.01.02.72,0,1.44,0,2.16,0,160.36,0,320.71,0,481.07,0,1.12-.03,2.24-.05,3.36h-135.07c-.4,0-.8-.02-1.2,0-.67.05-1.26.1-1.03-.92.1-.46.02-.96.02-1.44,0-162.1,0-324.2,0-486.29Z" style="fill: #565555; stroke-width: 0px;"></path><path d="m1030.66,770.43c.02.88.05,1.76.05,2.64,0,40.06,0,80.12,0,120.19,0,3.89.34,3.38-3.27,3.38-43.58.01-87.16,0-130.74,0-2.82,0-2.85,0-2.85-2.42,0-41.26.01-82.52.02-123.78,45.6,0,91.2,0,136.8,0Z" style="fill: #565555; stroke-width: 0px;"></path></g><g><path d="m1629.42,1509.11h49.85v25.2h1259.52V275.44c-201.83,0-402.95,0-604.07,0-9.57,0-19.14,0-28.71,0h-626.23v381.67h-50.35V225.48c225.53-.01,451.05-.02,676.58-.03,9.57,0,19.14,0,28.71,0h654.06v654.06c0,10.11,0,20.22,0,30.32-.01,224.99-.02,449.98-.03,674.97h-1359.33c0-25.23,0-50.46,0-75.7Z" style="fill: #dadada; stroke-width: 0px;"></path><path d="m3214.22,909.98c-75.15-.05-150.3-.09-225.45-.14,0-10.11,0-20.22,0-30.32h194.59V30.13h-848.66v195.32c-9.57,0-19.14,0-28.71,0-.05-75.15-.09-150.3-.14-225.45h908.36v909.98Z" style="fill: #565656; stroke-width: 0px;"></path><path d="m2938.78,879.51v30.32c-67.62.05-135.24.12-202.86.13-89.09.02-178.18,0-267.26,0h-9.28v-30.2c1.69-.13,3.47-.38,5.26-.38,156.98-.02,313.95-.02,470.93-.01,1.07,0,2.14.09,3.21.13Z" style="fill: #565656; stroke-width: 0px;"></path><path d="m2306,275.44c9.57,0,19.14,0,28.71,0,.05,88.28.1,176.56.13,264.84.02,61.45,0,122.9,0,184.34v9.28h-28.59c-.13-1.69-.38-3.47-.38-5.26-.02-150-.02-300,0-449.99,0-1.07.09-2.14.13-3.21Z" style="fill: #565656; stroke-width: 0px;"></path></g><path d="m2217.02,930.88c-41.09-55.84-99.04-86.39-175.95-86.39-60.05,0-115.89,23.18-158.04,66.38-45.3,46.36-69.54,108.52-69.54,169.63,0,140.13,103.25,242.33,227.58,242.33,73.75,0,133.81-28.45,170.68-80.07h179.11c-69.54,152.77-186.49,229.68-348.74,229.68-111.68,0-207.56-43.2-283.42-128.54-63.22-70.59-96.93-162.25-96.93-265.51s40.04-199.13,116.95-276.04c71.64-70.59,161.2-108.52,264.45-108.52,164.36,0,279.2,77.97,352.95,237.06h-179.11Z" style="fill: #565555; stroke-width: 0px;"></path><path d="m2462.57,819.69v-92.33l179.11-167.31c34.02-31.93,51.37-63.17,51.37-90.94,0-36.1-25.69-63.87-63.87-63.87s-62.48,26.38-62.48,73.59v8.33h-97.19v-1.39c0-102.74,65.95-168.69,161.75-168.69s158.97,69.42,158.97,152.73c0,47.9-24.3,91.64-73.59,136.07l-138.15,124.96h209.65v88.86h-325.59Z" style="fill: #80bc4d; stroke-width: 0px;"></path><path d="m0,1450.97v-749.1h193.86l190.7,544.71,189.65-544.71h193.86v749.1h-144.34l5.27-543.65-189.65,543.65h-110.63l-189.65-543.65,6.32,543.65H0Z" style="fill: #565555; stroke-width: 0px;"></path></g></g></svg>